<svg xmlns="http://www.w3.org/2000/svg" viewBox="0 0 512 560" fill="none">
  <defs>
    <clipPath id="house-clip">
      <path d="M256 0L16 200V520C16 542 34 560 56 560H456C478 560 496 542 496 520V200Z"/>
    </clipPath>
  </defs>

  <!-- House shape as background -->
  <path d="M256 0L16 200V520C16 542 34 560 56 560H456C478 560 496 542 496 520V200Z" fill="#0f766e"/>

  <!-- Roof accent -->
  <path d="M256 0L16 200H496Z" fill="#0a5e56"/>

  <!-- Woman silhouette clipped to house shape -->
  <g clip-path="url(#house-clip)">
    <g transform="translate(96, 140) scale(0.625)">
      <path fill="white" d="M90.396 260.923c38.16-40.465 18.438-130.599 36.706-183.524 25.655-74.227 120.495-99.594 173.333-56.158 41.432-4.412 83.182 16.956 92.184 80.835 7.36 52.248 2.867 123.098 28.979 163.408-27.902 26.737-71.407 29.008-107.856 30.963l1.118 8.425c1.82 13.68 1.801 16.655 12.249 28.273C376.651 388.21 512 338.219 512 494.87c0 3.625-2.959 6.581-6.592 6.581H6.592c-3.636 0-6.592-2.956-6.592-6.581 0-168.597 143.337-87.788 185.168-161.699 6.943-12.261 6.676-15.628 6.075-28.89l-.327-7.199c-39.105-1.85-73.255-3.68-100.52-36.159z"/>
    </g>
  </g>
</svg>
